# xmcd CD database file
#
# Track frame offsets:
#	150
#	17723
#	40020
#	55686
#	74563
#	92193
#	113667
#	131966
#	147729
#	166847
#
# Disc length: 2585 seconds
#
# Revision: 0
# Processed by: cddbd v1.5.2PL0 Copyright (c) Steve Scherf et al.
# Submitted via: CDex 1.99.1
#
DISCID=8e0a170a
DTITLE=Courtney Marie Andrews - May Your Kindness Remain
DYEAR=2018
DGENRE=Country
TTITLE0=May Your Kindness Remain
TTITLE1=Lift The Lonely From My Heart
TTITLE2=Two Cold Nights In Buffalo
TTITLE3=Rough Around The Edges
TTITLE4=Border
TTITLE5=Took You Up
TTITLE6=This House
TTITLE7=Kindness Of Strangers
TTITLE8=I've Hurt Worse
TTITLE9=Long Road Back To You
EXTD=YEAR: 2018
EXTT0=
EXTT1=
EXTT2=
EXTT3=
EXTT4=
EXTT5=
EXTT6=
EXTT7=
EXTT8=
EXTT9=
PLAYORDER=
